<?xml version="1.0" encoding="UTF-8"?>
<svg version="1.1" viewBox="0 0 322.59387 398.75018" xmlns="http://www.w3.org/2000/svg">
 <g transform="matrix(.99007 0 0 .99971 346.72 -4.253)">
  <path transform="matrix(.99725 0 0 1.159 -340.86 37.36)" d="m248.44 39.041c0 37.337-38.824 67.605-86.716 67.605s-86.716-30.268-86.716-67.605 38.824-67.605 86.716-67.605 86.716 30.268 86.716 67.605z" color="#000000" fill="#413927"/>
  <path d="m-290.74 193.23 38.625-39.466 100.55 138.24-38.625 34.061c-33.518-46.081-15.785-13.755-100.55-132.84z" color="#000000" fill="#c48c5f"/>
  <path d="m-261.01 164.24-73.649 30.405 0.67568 204.73 307.43 1.3514 0.67568-29.73-4.7297-7.4324-10.135 2.7027-1.3514-25-36.486-66.216-43.919-48.649-57.465 106.24c-17.819-26.377-0.21204-26.748-54.809-77.104 0 0-51.764-41.436-49.64-61.449 1.3344-12.573 23.4-29.851 23.4-29.851z" color="#000000" fill="#6f1321" stroke="#000" stroke-width="3"/>
  <path d="m-176.29 15.701c-42.991 7.6444-11.083 21.807-27.826 33.346-16.163 11.139-60.504 11.177-63.841 47.171-0.19986 0.0042-0.3943 0.0072-0.59375 0.03125-8.0582 0.96971-12.646 17.899-10.25 37.813 1.9374 16.1 7.8299 29.233 14.281 33.156 10.931 57.566 41.596 100.28 81.594 100.28 47.234 0 75.078-60.204 85.531-132.81 12.896-89.605-32.396-127.26-78.896-118.99z" color="#000000" fill="#dda187" stroke="#000" stroke-linecap="round" stroke-width=".20639"/>
  <path d="m-132.63 213.56-16.892 14.189-8.1081 31.081-12.162-5.4054-12.162 29.054-6.7568 41.216-3.3784 41.892-33.108 32.432s89.189 3.3784 91.892 0.67567c2.7027-2.7027 13.514-12.838 13.514-12.838l8.1081 14.865 59.459-1.3514-16.216-25.676-15.541-27.703-8.7838-118.92-4.7297-6.0811 0.67567-16.892-10.135-1.3514-6.0811 4.054-6.0811-2.7027-4.7297 15.541z" color="#000000" fill="#c88d6d" stroke="#000" stroke-width="3"/>
  <path transform="matrix(6.7273,0,0,1.7292,-1252.3,-97.077)" d="m161.25 132.68c0 0.7916-0.58825 1.4333-1.3139 1.4333-0.72563 0-1.3139-0.64172-1.3139-1.4333 0-0.79161 0.58825-1.4333 1.3139-1.4333 0.72564 0 1.3139 0.64172 1.3139 1.4333z" color="#000000" fill="#fff"/>
  <path transform="matrix(6.7273,0,0,1.7292,-1193.5,-89.731)" d="m161.25 132.68c0 0.7916-0.58825 1.4333-1.3139 1.4333-0.72563 0-1.3139-0.64172-1.3139-1.4333 0-0.79161 0.58825-1.4333 1.3139-1.4333 0.72564 0 1.3139 0.64172 1.3139 1.4333z" color="#000000" fill="#fff"/>
  <path d="m-259.02 97.588c-0.88172 0.32196-2.413 1.4516-2.413 1.4516l3.0706 2.0213s1.5272-1.2998 2.3165-1.0069c1.2982 0.48175 52.621 36.507 52.621 36.507-4.9224 20.963 3.9106 20.283 19.094 24.125 19.342 4.8937 34.009-6.7292 35.938-20.406l12.281 1.4062c-0.0289 0.14207-0.0656 0.26072-0.0937 0.40625-2.8477 14.652-1.1427 26.821 20.25 25.625 15.538-0.86887 24.712 0.9749 28.906-19.906l5.375 0.46875 0.71875-4.7188-4.375-0.375c0.67118-0.24926 1.3311-0.13846 1.125-1.1562l1.0625-6.4688-12.812-12.219-0.25 3.1562 4 4.2812c-3.4239-0.9561-8.355 0.59514-15.375 0.34375-17.096-0.61219-23.911-2.9158-27.281 5.9375l-13.344-1.5625c-0.51829-13.039-7.2234-11.549-25.969-14.5-5.6164-0.88426-10.125-1.4746-13.781-1.375-7.4542 0.20313-11.412 3.2559-14.219 12.312 0 0-34.42-24.802-52.7-35.011-1.2217-0.68232-2.8308 0.18328-4.1453 0.66326z" color="#000000" fill="#000080" fill-opacity=".6459"/>
  <path d="m-268.6 102.47c-0.20202-9.6e-4 -0.42851 7e-3 -0.63004 0.0313-6.4489 0.76099-10.108 14.029-8.1905 29.656 1.9178 15.628 8.702 27.698 15.151 26.938 6.449-0.76099 10.108-14.06 8.1905-29.688-1.8579-15.139-8.2582-26.908-14.521-26.938zm1.8901 4c4.9291 0.0235 9.9984 9.3031 11.461 21.219 1.5095 12.3-1.3747 22.745-6.4504 23.344-5.0757 0.59895-16.051-9.4966-11.941-21.188 3.9252-11.165 4.301-13.249 6.4504-23.344 0.15861-0.0187 0.32102-0.032 0.48002-0.0313z" color="#000000" fill="#666"/>
  <path d="m-259.56 122.13-4.6201 4.9042c-0.66808-0.37157-1.3788-0.5913-2.0625-0.59375-0.10677-3.8e-4 -0.206 0.0219-0.3125 0.0313-3.4082 0.3027-5.3573 5.5649-4.3438 11.781 1.0136 6.2163 4.5918 11.021 8 10.719 3.4082-0.3027 5.3573-5.5962 4.3438-11.812-0.1824-1.1187-0.44902-2.1827-0.78125-3.1875-3e-3 -9e-3 3e-3 -0.0219 0-0.0313l2.5271-3.1514 0.32915-2.9771-4.4187 2.7535c-0.23173-0.39068-0.46648-0.75039-0.71875-1.0938l2.2625-4.5771zm-5.6826 5.9042c1.3882 5e-3 2.8069 1.0835 3.9375 2.7812l-0.0937 0.0625 0.9375 1.4688c0.57485 1.2178 1.0333 2.6046 1.2812 4.125 0.79773 4.8926-1.6196 7.3423-4.3021 7.5806-2.6825 0.23825-4.6189-1.813-5.4167-6.7056-0.79773-4.8926 0.72379-9.043 3.4062-9.2812 0.0838-7e-3 0.16597-0.0316 0.25-0.0313z" color="#000000" fill="#666"/>
  <path d="m-98.359 128-3.8222-4.7777-25.322-1.4333 6.9277-3.8222-0.47778-5.4944 7.4055 2.15 8.8388-7.4055 6.2111 15.289z" color="#000000"/>
  <path d="m-192.24 112.47 8.1222-5.7333-1.9111 9.3166 8.6-8.1222-1.1944 4.0611 9.3166 2.8666 14.094-5.9722-11.944-5.0166 0.71666-5.2555-11.467-3.1055-7.6444 3.1055-10.75 10.511 9.7944-3.1055z" color="#000000"/>
  <path d="m-179.34 176.73 6.6888 11.228h3.1055l5.9722-1.1944 8.1222 9.5555s8.8388-0.23889 10.511 0c1.6722 0.23888 6.45-4.0611 6.45-4.0611h6.6888l1.6722-7.6444-4.0611 4.0611-0.71666-0.71666-1.1944-11.467 3.3444-9.7944-1.9111-2.8666-3.5833 13.855-0.47778 10.272-5.4944 4.3-10.75-0.23889-7.8833-7.6444-6.2111 0.23888-2.6278 0.71667z" color="#000000"/>
  <path transform="translate(-335.34 -.62629)" d="m186.82 183.11c0 2.239-1.8151 4.054-4.0541 4.054s-4.054-1.8151-4.054-4.054 1.8151-4.0541 4.054-4.0541c2.239 0 4.0541 1.8151 4.0541 4.0541z" color="#000000" fill="#fff"/>
  <path transform="translate(-335.34 -.62629)" d="m136.82 165.88c0 3.3585-2.3444 6.0811-5.2365 6.0811-2.892 0-5.2365-2.7226-5.2365-6.0811s2.3444-6.0811 5.2365-6.0811c2.892 0 5.2365 2.7226 5.2365 6.0811z" color="#000000" fill="#fff"/>
  <path transform="translate(-335.34 -.62629)" d="m171.62 244.76c0 3.0786-5.1427 5.5743-11.486 5.5743s-11.486-2.4957-11.486-5.5743 5.1427-5.5743 11.486-5.5743 11.486 2.4957 11.486 5.5743z" color="#000000" fill="#fff"/>
  <path transform="translate(-335.34 -.62629)" d="m178.38 73.311c0 1.8658-1.5882 3.3784-3.5473 3.3784s-3.5473-1.5126-3.5473-3.3784 1.5882-3.3784 3.5473-3.3784 3.5473 1.5126 3.5473 3.3784z" color="#000000" fill="#fff"/>
  <path transform="translate(-335.34 -.62629)" d="m179.05 86.149c0 2.4256-1.8907 4.3919-4.223 4.3919s-4.223-1.9663-4.223-4.3919 1.8907-4.3919 4.223-4.3919 4.223 1.9663 4.223 4.3919z" color="#000000" fill="#fff"/>
  <path transform="translate(-341.42,-4.6803)" d="m186.15 104.39c0 3.3585-2.1176 6.0811-4.7297 6.0811-2.6122 0-4.7297-2.7226-4.7297-6.0811s2.1176-6.0811 4.7297-6.0811c2.6122 0 4.7297 2.7226 4.7297 6.0811z" color="#000000" fill="#fff"/>
  <path transform="translate(-335.34 -.62629)" d="m177.7 63.514c0 2.0524-1.4369 3.7162-3.2095 3.7162s-3.2095-1.6638-3.2095-3.7162 1.4369-3.7162 3.2095-3.7162 3.2095 1.6638 3.2095 3.7162z" color="#000000" fill="#fff"/>
  <path d="m-166.68 169.09c-0.95555-0.47777-11.228-0.47777-11.228-0.47777l-13.855 8.5999-22.694 3.1055-9.5555-6.45 6.9277 15.528-3.3444 38.222 19.111 31.294 13.139 8.1222" color="#000000" fill="none" stroke="#000" stroke-width="3"/>
  <path d="m-227.6 152.84c-2.3889 2.15-16.005 37.266-16.005 37.266l10.989 27.233 8.1222 28.666 12.9 12.183" color="#000000" fill="none" stroke="#000" stroke-width="3"/>
  <path d="m-195.59 208.98h4.5389s7.4055 2.8666 8.5999 3.1055c1.1944 0.23889 15.289-0.23889 15.289-0.23889l10.272 4.5389 6.9277-2.3889 6.45 1.1944 6.6888-3.8222-7.8833 10.272s-5.9722 8.1222-7.1666 8.1222-7.8833 0.95555-7.8833 0.95555l-14.333-1.4333-10.511-5.9722z" color="#000000" fill="#f00" stroke="#000" stroke-width="3"/>
  <path d="m-184.12 214.95c1.1944 1.4333 14.094 7.4055 14.094 7.4055l12.183 1.1944 6.2111-2.8666v-3.3444l-13.139 2.3889-7.1666-2.8666z" color="#000000" fill="#fff"/>
  <path d="m-170.26 131.7c0 2.1769-2.6261 3.6038-5.3967 3.6038s-4.6366-1.4269-4.6366-3.6038 2.1616-3.2237 4.9322-3.2237c3.3588 0 5.1011 1.0468 5.1011 3.2237z" color="#000000"/>
  <path d="m-111.98 139.23c0 2.1769-2.3727 3.6038-5.1433 3.6038s-4.89-1.4269-4.89-3.6038 2.2883-3.0126 5.0589-3.0126 4.9744 0.83568 4.9744 3.0126z" color="#000000"/>
  <path transform="matrix(1 0 0 .77083 -336.59 29.392)" d="m161.25 132.68c0 0.7916-0.58825 1.4333-1.3139 1.4333-0.72563 0-1.3139-0.64172-1.3139-1.4333 0-0.79161 0.58825-1.4333 1.3139-1.4333 0.72564 0 1.3139 0.64172 1.3139 1.4333z" color="#000000" fill="#fff"/>
  <path transform="matrix(1 0 0 .77083 -279.55 36.708)" d="m161.25 132.68c0 0.7916-0.58825 1.4333-1.3139 1.4333-0.72563 0-1.3139-0.64172-1.3139-1.4333 0-0.79161 0.58825-1.4333 1.3139-1.4333 0.72564 0 1.3139 0.64172 1.3139 1.4333z" color="#000000" fill="#fff"/>
  <path d="m-306.28 208.16 86.486 145.27s-70.27 58.108-70.27 48.649c0-9.4595-20.27-62.162-19.595-68.919 0.67568-6.7568 2.7027-56.757 2.7027-56.757l-1.3514-10.135-16.892-27.027-25-25z" color="#000000" fill="#fcd932"/>
 </g>
 <path transform="matrix(.58081 .067479 -.14391 1.2387 106.35 59.03)" d="m186.15 104.39a4.7297 6.0811 0 1 1 -9.4594 0 4.7297 6.0811 0 1 1 9.4594 0z" color="#000000" fill="#fff"/>
 <path d="m160.75 177.94c-0.15759-0.30291-5.5288-0.55938-5.7457-0.37234-1.1566 0.99754 5.0105 5.0446 7.7457 8.2161 2.3933 2.775 3.6445 5.4555 5.0607 5.1679-0.52026 1.4406 0.75142 2.6312 0.97059 5.0509 0.37781 4.171-2.1746 8.3213 5.0715 8.1295 7.4022-0.19595 0.80632-4.4585 0.42851-8.6295s0.20782-5.9484-1.3133-5.8107c2.5498-0.95974-0.75288-3.1491-0.95179-2.9867-0.0298-1.5248-3.5424-3.0138-5.5688-5.3634-2.2224-2.5768-5.3615-2.7564-5.6973-3.4018z" color="#000000" fill="#fff"/>
 <path transform="matrix(.58457 -.012956 .027632 1.2467 107.79 -24.072)" d="m186.15 104.39a4.7297 6.0811 0 1 1 -9.4594 0 4.7297 6.0811 0 1 1 9.4594 0z" color="#000000" fill="#fff"/>
</svg>
